# xmcd
# 
# Track frame offsets:
#     150
#     13620
#     30030
#     50490
#     75302
#     96235
#     117355
#     134777
#     142590
#     163295
#     184037
#     203120
#     217075
# 
# Disc length: 3264
# 
# Revision: 2
# Processed by: cddbd v1.5.2PL0 Copyright (c) Steve Scherf et al.
# Submitted via: BonkEnc v1.0.15
# 
DISCID=ad0cbe0d
DTITLE=Ernest and the Hemingways - The old man and the band
DYEAR=1995
DGENRE=Blues
TTITLE0=Down to the nightclub
TTITLE1=Gangster of love
TTITLE2=And when I die
TTITLE3=A real mother for Ya
TTITLE4=You`ve made me so very happy
TTITLE5=Get back
TTITLE6=Hit me like a hammer
TTITLE7=Sweet soul music
TTITLE8=Knock on wood
TTITLE9=Buona sera
TTITLE10=Crazy Daisy
TTITLE11=Living in the heart of Rock`n`Roll
TTITLE12=Ice-Bird
EXTD=
EXTT0=
EXTT1=
EXTT2=
EXTT3=
EXTT4=
EXTT5=
EXTT6=
EXTT7=
EXTT8=
EXTT9=
EXTT10=
EXTT11=
EXTT12=
PLAYORDER=
